<mxfile host="app.diagrams.net" modified="2021-02-23T05:54:18.348Z" agent="5.0 (Windows NT 10.0; WOW64) AppleWebKit/537.36 (KHTML, like Gecko) Chrome/75.0.3770.100 Safari/537.36" etag="vvY7HdTSh-Fba0tm4O96" version="14.2.9" type="github">
  <diagram id="oM0u5np-nsZo8LVwmDq8" name="Page-1">
    <mxGraphModel dx="1024" dy="537" grid="1" gridSize="10" guides="1" tooltips="1" connect="1" arrows="1" fold="1" page="1" pageScale="1" pageWidth="827" pageHeight="1169" math="0" shadow="0">
      <root>
        <mxCell id="0" />
        <mxCell id="1" parent="0" />
        <mxCell id="21cPC0lwqa-gqHlfARLv-11" value="" style="rounded=0;whiteSpace=wrap;html=1;shadow=1;fillColor=#CCE5FF;" vertex="1" parent="1">
          <mxGeometry x="290" y="10" width="480" height="460" as="geometry" />
        </mxCell>
        <mxCell id="21cPC0lwqa-gqHlfARLv-1" value="gateway" style="rounded=0;whiteSpace=wrap;html=1;" vertex="1" parent="1">
          <mxGeometry x="350" y="130" width="340" height="40" as="geometry" />
        </mxCell>
        <mxCell id="21cPC0lwqa-gqHlfARLv-2" value="代码生成服务&lt;br&gt;&lt;br&gt;前后端 代码模板" style="rounded=0;whiteSpace=wrap;html=1;" vertex="1" parent="1">
          <mxGeometry x="80" y="125" width="180" height="50" as="geometry" />
        </mxCell>
        <mxCell id="21cPC0lwqa-gqHlfARLv-3" value="micro services" style="rounded=0;whiteSpace=wrap;html=1;" vertex="1" parent="1">
          <mxGeometry x="350" y="200" width="340" height="50" as="geometry" />
        </mxCell>
        <mxCell id="21cPC0lwqa-gqHlfARLv-4" value="VUE" style="rounded=0;whiteSpace=wrap;html=1;" vertex="1" parent="1">
          <mxGeometry x="350" y="50" width="340" height="60" as="geometry" />
        </mxCell>
        <mxCell id="21cPC0lwqa-gqHlfARLv-5" value="中间件 jar 接入" style="rounded=0;whiteSpace=wrap;html=1;" vertex="1" parent="1">
          <mxGeometry x="80" y="330" width="180" height="60" as="geometry" />
        </mxCell>
        <mxCell id="21cPC0lwqa-gqHlfARLv-6" value="Gaea jar" style="rounded=0;whiteSpace=wrap;html=1;" vertex="1" parent="1">
          <mxGeometry x="80" y="410" width="180" height="60" as="geometry" />
        </mxCell>
        <mxCell id="21cPC0lwqa-gqHlfARLv-7" value="mvn&amp;nbsp; archetype" style="rounded=0;whiteSpace=wrap;html=1;" vertex="1" parent="1">
          <mxGeometry x="80" y="40" width="180" height="50" as="geometry" />
        </mxCell>
        <mxCell id="21cPC0lwqa-gqHlfARLv-8" value="mysql" style="rounded=0;whiteSpace=wrap;html=1;" vertex="1" parent="1">
          <mxGeometry x="390" y="290" width="120" height="50" as="geometry" />
        </mxCell>
        <mxCell id="21cPC0lwqa-gqHlfARLv-9" value="mq" style="rounded=0;whiteSpace=wrap;html=1;" vertex="1" parent="1">
          <mxGeometry x="540" y="290" width="120" height="50" as="geometry" />
        </mxCell>
      </root>
    </mxGraphModel>
  </diagram>
</mxfile>
